<?xml version="1.0" encoding="UTF-8" standalone="no"?>
<svg
   id="svg"
   version="1.1"
   width="400"
   height="400"
   viewBox="0, 0, 400,400"
   sodipodi:docname="logo_kantiles.svg"
   inkscape:version="1.2.2 (732a01da63, 2022-12-09)"
   inkscape:export-filename="logo_kantiles.png"
   inkscape:export-xdpi="300.43"
   inkscape:export-ydpi="300.43"
   xmlns:inkscape="http://www.inkscape.org/namespaces/inkscape"
   xmlns:sodipodi="http://sodipodi.sourceforge.net/DTD/sodipodi-0.dtd"
   xmlns="http://www.w3.org/2000/svg"
   xmlns:svg="http://www.w3.org/2000/svg">
  <defs
     id="defs11" />
  <sodipodi:namedview
     id="namedview9"
     pagecolor="#ffffff"
     bordercolor="#666666"
     borderopacity="1.0"
     inkscape:showpageshadow="2"
     inkscape:pageopacity="0.0"
     inkscape:pagecheckerboard="0"
     inkscape:deskcolor="#d1d1d1"
     showgrid="false"
     inkscape:zoom="2.0725"
     inkscape:cx="184.55971"
     inkscape:cy="212.30398"
     inkscape:window-width="1920"
     inkscape:window-height="1009"
     inkscape:window-x="1912"
     inkscape:window-y="-8"
     inkscape:window-maximized="1"
     inkscape:current-layer="svgg" />
  <g
     id="svgg"
     transform="matrix(1.3,0,0,1.3,-60.000001,-14.259171)">
    <text
       xml:space="preserve"
       style="font-style:normal;font-variant:normal;font-weight:bold;font-stretch:normal;font-size:64px;line-height:1.25;font-family:Figtree;-inkscape-font-specification:'Figtree Bold'"
       x="79.904015"
       y="281.52545"
       id="text899"><tspan
         id="tspan897"
         x="79.904015"
         y="281.52545"
         style="font-style:normal;font-variant:normal;font-weight:bold;font-stretch:normal;font-size:64px;font-family:Figtree;-inkscape-font-specification:'Figtree Bold'"
         sodipodi:role="line">Kantiles</tspan></text>
    <path
       id="path2"
       d="m 178.10768,47.66026 c -2.9161,6.35202 -3.96994,9.33934 -3.52198,9.98008 0.9646,1.37373 4.79894,3.45864 10.41315,5.66432 3.2096,1.25967 8.46165,3.53245 11.67125,5.05211 14.69374,6.95586 16.30712,6.93238 19.26784,-0.27844 3.36921,-8.2105 3.47219,-8.026 -6.91007,-12.39878 -3.96479,-1.66894 -10.14367,-4.30067 -13.73086,-5.84716 -5.76868,-2.48747 -13.89049,-5.33892 -15.24298,-5.35402 -0.26603,-0.003 -1.14139,1.42908 -1.94635,3.18189 m 82.39036,-1.6354 c -4.50373,3.06615 -6.08793,7.11354 -5.96778,15.23514 0.12701,8.52081 0.63676,7.03638 -11.85146,34.49419 -6.73718,14.84843 -12.29764,27.68341 -18.78211,41.30747 -4.86244,10.1864 -4.65991,10.58058 8.47366,16.43611 26.02686,11.60205 27.13392,11.66747 30.18045,1.78804 1.7524,-5.68279 1.9309,-5.48151 -8.75171,-9.94822 -13.43909,-5.61737 -13.63476,-6.7244 -4.30978,-24.37824 6.31689,-14.68449 13.71307,-28.89798 19.34164,-44.20757 1.60308,-4.48852 2.23128,-5.23997 4.84872,-5.80187 7.81287,-1.67732 11.5837,-13.92347 6.52559,-21.19468 -3.43443,-4.93636 -14.77956,-7.08502 -19.70722,-3.73037 m 12.46591,3.52574 c 5.74293,2.90009 6.09135,13.28106 0.54065,16.08555 -4.23598,2.14194 -11.36229,-0.0973 -13.35155,-4.19499 -3.47906,-7.16554 5.55928,-15.55551 12.8109,-11.89056 M 137.81272,85.55438 c -2.04748,4.03782 -3.59904,7.20926 -3.89592,11.61691 l 6.45674,3.56791 c 3.20958,1.4056 7.42152,3.07118 9.3593,3.70018 7.61205,2.4707 7.22071,5.80186 -3.16154,26.91938 -1.99441,4.05913 -13.60728,30.79737 -15.42834,35.52574 -2.45612,6.37719 -4.34239,9.62282 -5.8648,10.09582 -7.1946,5.58997 -10.45229,15.09043 -5.19676,22.22556 3.40113,3.32045 2.45392,2.59673 5.9777,4.21244 12.29227,3.5343 22.80183,-7.52448 18.41997,-18.94539 l -1.50182,-3.9132 1.543,-4.13796 c 1.26153,-3.38652 4.27717,-10.17297 9.59102,-21.58046 2.78565,-5.97799 7.24303,-16.05704 9.93942,-22.47615 1.78502,-4.24363 4.27545,-9.82913 5.5387,-12.41221 2.10597,-4.3124 6.37627,-14.74368 7.46272,-18.23084 1.32503,-4.25705 -36.31986,-19.76727 -39.23939,-16.16773 m 47.3715,87.90523 c -1.77128,2.21576 -4.53976,9.17665 -4.59126,11.54168 l -0.0566,2.65185 c 12.31019,5.18206 21.45546,8.91416 33.12057,13.81781 4.39902,1.85343 4.77661,1.62867 8.09605,-4.83573 4.1021,-7.98742 4.62795,-7.91678 -18.76774,-17.79118 -16.89909,-7.0135 -13.37514,-7.17185 -17.80099,-5.38443 m -48.30863,9.6094 c 4.30463,3.53915 3.98711,9.14813 -0.80497,14.20862 -3.13235,3.30936 -10.69291,1.35192 -12.86754,-3.32949 -3.99568,-8.60301 6.39001,-16.86718 13.67251,-10.87913"
       stroke="none"
       fill="#6ea9be"
       fill-rule="evenodd"
       sodipodi:nodetypes="ccccccccccccccscccscccccccccccscccccccccccccccccccccc"
       style="stroke-width:1.69673;fill:#0770da;fill-opacity:1" />
    <path
       id="path3"
       d="m 128.673,41.45458 c -10.36166,2.39019 -13.88535,17.16239 -6.00382,25.16993 3.55457,3.61296 7.00445,4.616 13.75146,3.99875 5.07012,-0.46462 10.69292,0.75815 15.34596,3.33787 13.30279,6.28642 27.38787,11.72021 41.35737,17.99267 30.4053,13.70206 31.16393,13.85135 34.92104,6.86361 7.00274,-13.0261 13.12328,-27.37897 13.13357,-30.79904 0.0172,-5.88909 -12.70276,-8.93511 -16.1372,-3.86455 -1.36794,2.02117 -7.88839,16.34553 -7.88839,17.33179 0,1.15568 -5.60905,-0.61222 -15.06447,-4.74515 -9.42968,-4.12286 -22.01401,-9.58423 -39.51573,-17.15064 -12.87441,-5.56705 -13.38245,-5.87903 -14.85164,-9.12465 -3.67473,-8.11825 -9.98234,-11.10222 -19.04815,-9.01059 m 10.56076,8.32792 c 6.06388,5.92598 -0.35358,16.30024 -8.5921,13.88825 -6.23381,-1.82493 -6.99759,-11.35549 -1.19802,-14.95336 2.03903,-1.2647 8.0789,-0.60719 9.79012,1.06511 m 126.29652,51.65992 c -0.59729,0.89066 -3.2525,6.40068 -5.90256,12.24448 -2.64834,5.8438 -5.53011,12.13545 -6.40202,13.9805 -0.87191,1.84506 -2.14373,4.8307 -2.82512,6.6355 l -1.23922,3.27918 1.77816,1.49616 c 2.36857,1.98932 12.78343,5.28357 13.88533,4.39125 0.87535,-0.71119 1.63569,-2.27949 7.66011,-15.80209 2.13687,-4.79715 4.88304,-10.84055 6.10337,-13.43034 4.11068,-8.72209 3.92703,-9.36786 -3.54428,-12.40717 -6.04157,-2.45728 -8.07031,-2.53947 -9.51377,-0.38747 m -131.29285,5.11752 c -0.85818,0.33715 -1.74726,1.1473 -1.97725,1.80145 -0.22999,0.65584 -1.13108,2.85146 -2.00299,4.88102 -0.87191,2.02956 -2.55394,5.9545 -3.73823,8.72209 -2.59513,6.06018 -3.21302,7.45739 -6.47582,14.61118 -3.03452,6.65394 -2.96929,7.28462 0.99721,9.65635 10.56418,6.31514 11.89093,5.46305 20.01274,-12.86843 10.13167,-22.86362 10.10936,-22.43925 1.29585,-25.51882 -6.28188,-2.19395 -5.93689,-2.1386 -8.11151,-1.28484 m 36.25121,45.76414 c -10.71008,22.02495 -13.24686,29.80774 -10.49038,32.20128 0.92168,0.80176 9.52922,3.8612 10.8594,3.8612 1.50353,0 5.80129,-6.84516 8.93192,-14.23042 3.68674,-8.69526 2.35142,-8.66171 20.88638,-0.53171 19.78274,8.67679 27.76382,12.07841 28.34222,12.07841 1.12421,0 19.45321,8.22561 20.67354,9.27729 0.71572,0.61725 1.87084,2.3667 2.56768,3.88803 7.46444,16.29689 33.28362,8.13335 29.45443,-9.31418 -1.90174,-8.66338 -6.78477,-11.68257 -17.82611,-11.02002 -6.31277,0.37907 -16.43928,-2.29626 -20.98935,-5.54692 -15.67058,-6.74034 -29.95457,-13.03726 -43.93877,-19.0175 -25.58576,-10.93952 -23.99641,-10.84727 -28.47096,-1.64546 m 99.16605,33.35864 c 6.23896,1.4123 6.96841,10.78184 1.07101,13.76245 -6.20635,3.13659 -12.3801,-0.19457 -12.3801,-6.67911 0,-6.05515 4.21023,-8.6919 11.30909,-7.08334"
       stroke="none"
       fill="#f1b430"
       fill-rule="evenodd"
       sodipodi:nodetypes="ccccccccsccccccccccsccccccccccsccccccccsccscccccccccsc"
       style="stroke-width:1.69673;fill:#fe7920;fill-opacity:1"
       inkscape:export-filename="logo_kantiles.png"
       inkscape:export-xdpi="300.43"
       inkscape:export-ydpi="300.43" />
  </g>
</svg>
