<?xml version="1.0" encoding="UTF-8" standalone="no"?>
<svg
   id="svg"
   version="1.1"
   width="400"
   height="400"
   viewBox="0, 0, 400,400"
   sodipodi:docname="logo_kantiles_dark_bg.svg"
   inkscape:version="1.2.2 (732a01da63, 2022-12-09)"
   inkscape:export-filename="logo_kantiles_dark_bg.png"
   inkscape:export-xdpi="300.43"
   inkscape:export-ydpi="300.43"
   xmlns:inkscape="http://www.inkscape.org/namespaces/inkscape"
   xmlns:sodipodi="http://sodipodi.sourceforge.net/DTD/sodipodi-0.dtd"
   xmlns="http://www.w3.org/2000/svg"
   xmlns:svg="http://www.w3.org/2000/svg">
  <defs
     id="defs11" />
  <sodipodi:namedview
     id="namedview9"
     pagecolor="#ffffff"
     bordercolor="#666666"
     borderopacity="1.0"
     inkscape:showpageshadow="2"
     inkscape:pageopacity="0.0"
     inkscape:pagecheckerboard="0"
     inkscape:deskcolor="#d1d1d1"
     showgrid="false"
     inkscape:zoom="2.0725"
     inkscape:cx="62.484922"
     inkscape:cy="212.30398"
     inkscape:window-width="1920"
     inkscape:window-height="1009"
     inkscape:window-x="1912"
     inkscape:window-y="-8"
     inkscape:window-maximized="1"
     inkscape:current-layer="svg" />
  <path
     id="path2"
     d="m 171.53998,47.699167 c -3.79093,8.257626 -5.16092,12.141142 -4.57857,12.974104 1.25398,1.785849 6.23862,4.496232 13.53709,7.363616 4.17248,1.637571 11.00015,4.592185 15.17263,6.567743 19.10186,9.042618 21.19925,9.012094 25.04819,-0.361972 4.37997,-10.67365 4.51385,-10.4338 -8.98309,-16.118414 -5.15423,-2.169622 -13.18677,-5.590871 -17.85012,-7.601308 -7.49928,-3.233711 -18.05764,-6.940596 -19.81587,-6.960226 -0.34584,-0.0039 -1.48381,1.857804 -2.53026,4.136457 m 107.10747,-2.12602 c -5.85485,3.985995 -7.91431,9.247602 -7.75811,19.805682 0.16511,11.077053 0.82778,9.147294 -15.4069,44.842451 -8.75834,19.30295 -15.98693,35.98843 -24.41674,53.69971 -6.32118,13.24232 -6.05789,13.75475 11.01575,21.36694 33.83492,15.08266 35.2741,15.16771 39.23459,2.32445 2.27812,-7.38763 2.51017,-7.12596 -11.37722,-12.93268 -17.47082,-7.30259 -17.72519,-8.74172 -5.60272,-31.69172 8.21196,-19.08983 17.82699,-37.56737 25.14413,-57.469837 2.08401,-5.835076 2.90067,-6.811961 6.30334,-7.542431 10.15673,-2.180516 15.05881,-18.100511 8.48327,-27.553084 -4.46476,-6.417268 -19.21343,-9.210526 -25.61939,-4.849481 m 16.20568,4.583462 c 7.46581,3.770117 7.91876,17.265378 0.70285,20.911215 -5.50677,2.784522 -14.77098,-0.12649 -17.35702,-5.453487 -4.52277,-9.315202 7.22707,-20.222163 16.65417,-15.457728 M 119.15654,96.961523 c -2.66173,5.249167 -4.67876,9.372037 -5.0647,15.101987 l 8.39376,4.63828 c 4.17246,1.82728 9.64798,3.99253 12.16709,4.81023 9.89567,3.21191 9.38692,7.54242 -4.11,34.9952 -2.59273,5.27687 -17.68946,40.03658 -20.05684,46.18346 -3.19296,8.29035 -5.64511,12.50966 -7.62424,13.12456 -9.352983,7.26697 -13.58798,19.61756 -6.755791,28.89323 4.421471,4.31659 3.190096,3.37575 7.771011,5.47618 15.97995,4.59458 29.64238,-9.78183 23.94596,-24.62901 l -1.95237,-5.08716 2.0059,-5.37935 c 1.63999,-4.40248 5.56033,-13.22486 12.46833,-28.0546 3.62134,-7.77139 9.41594,-20.87415 12.92125,-29.21899 2.32052,-5.51672 5.55808,-12.77787 7.20031,-16.13588 2.73776,-5.60612 8.28915,-19.16678 9.70153,-23.70009 1.72254,-5.53416 -47.21582,-25.697449 -51.0112,-21.018047 m 61.58295,114.276797 c -2.30267,2.88049 -5.90169,11.92965 -5.96864,15.00419 l -0.0736,3.4474 c 16.00324,6.73668 27.89209,11.58841 43.05674,17.96315 5.71872,2.40946 6.20959,2.11728 10.52486,-6.28644 5.33273,-10.38365 6.01634,-10.29182 -24.39806,-23.12854 -21.96882,-9.11755 -17.38768,-9.3234 -23.14129,-6.99976 m -62.80122,12.49222 c 5.59602,4.6009 5.18325,11.89257 -1.04646,18.47121 -4.07205,4.30217 -13.90078,1.75749 -16.7278,-4.32834 -5.194382,-11.18391 8.30701,-21.92733 17.77426,-14.14287"
     stroke="none"
     fill="#6ea9be"
     fill-rule="evenodd"
     sodipodi:nodetypes="ccccccccccccccscccscccccccccccscccccccccccccccccccccc"
     style="stroke-width:2.20575;fill:#0770da;fill-opacity:1" />
  <path
     id="path3"
     d="M 107.2749,39.631783 C 93.804741,42.73903 89.223944,61.94289 99.469933,72.352692 c 4.620937,4.696848 9.105787,6.0008 17.876897,5.198375 6.59116,-0.604006 13.9008,0.985595 19.94975,4.339231 17.29363,8.172346 35.60423,15.236273 53.76458,23.390472 39.52689,17.81268 40.51311,18.00675 45.39735,8.92269 9.10356,-16.933928 17.06027,-35.592659 17.07364,-40.03875 0.0224,-7.655817 -16.51359,-11.615643 -20.97836,-5.023915 -1.77832,2.627521 -10.2549,21.249189 -10.2549,22.531327 0,1.502384 -7.29177,-0.795886 -19.58381,-6.168695 C 190.45649,80.143709 174.09686,73.043928 151.34463,63.207595 134.60789,55.97043 133.94744,55.564856 132.03749,51.34555 127.26035,40.791825 119.06045,36.912664 107.2749,39.631783 m 13.72899,10.826296 c 7.88304,7.703774 -0.45966,21.190312 -11.16973,18.054725 -8.10396,-2.372409 -9.09687,-14.762137 -1.55743,-19.439368 2.65074,-1.64411 10.50257,-0.789347 12.72716,1.384643 m 164.18547,67.157901 c -0.77647,1.15785 -4.22825,8.32088 -7.67332,15.91782 -3.44285,7.59694 -7.18915,15.77608 -8.32263,18.17465 -1.13348,2.39858 -2.78685,6.27991 -3.67266,8.62615 l -1.61098,4.26293 2.31161,1.94501 c 3.07914,2.58612 16.61845,6.86864 18.05092,5.70863 1.13796,-0.92455 2.1264,-2.96334 9.95815,-20.54272 2.77793,-6.2363 6.34795,-14.09272 7.93438,-17.45944 5.34388,-11.33872 5.10514,-12.17822 -4.60757,-16.12932 -7.85404,-3.19447 -10.4914,-3.30131 -12.3679,-0.50371 m -170.6807,6.65277 c -1.11564,0.4383 -2.27144,1.49149 -2.57043,2.34189 -0.29898,0.85259 -1.4704,3.70689 -2.60388,6.34532 -1.13349,2.63843 -3.32013,7.74085 -4.8597,11.33872 -3.37367,7.87823 -4.17693,9.69461 -8.418569,18.99453 -3.944876,8.65012 -3.860077,9.47001 1.296373,12.55326 13.733436,8.20968 15.458206,7.10196 26.016566,-16.72896 13.17117,-29.72271 13.14216,-29.17103 1.6846,-33.17447 -8.16644,-2.85213 -7.71796,-2.78018 -10.54496,-1.67029 m 47.12657,59.49338 c -13.9231,28.63244 -17.22092,38.75006 -13.63749,41.86167 1.19818,1.04228 12.38798,5.01956 14.11722,5.01956 1.95459,0 7.54167,-8.89871 11.61149,-18.49955 4.79276,-11.30384 3.05685,-11.26022 27.1523,-0.69122 25.71756,11.27982 36.09296,15.70193 36.84488,15.70193 1.46148,0 25.28918,10.69329 26.8756,12.06048 0.93044,0.80242 2.4321,3.07671 3.33799,5.05444 9.70377,21.18595 43.2687,10.57335 38.29076,-12.10844 -2.47226,-11.26239 -8.8202,-15.18734 -23.17395,-14.32602 -8.2066,0.49279 -21.37106,-2.98514 -27.28615,-7.211 -20.37175,-8.76244 -38.94094,-16.94844 -57.1204,-24.72275 -33.26149,-14.22138 -31.19533,-14.10145 -37.01225,-2.1391 m 128.91587,43.36623 c 8.11064,1.83599 9.05893,14.0164 1.39231,17.89119 -8.06826,4.07757 -16.09413,-0.25294 -16.09413,-8.68284 0,-7.8717 5.4733,-11.29947 14.70182,-9.20835"
     stroke="none"
     fill="#f1b430"
     fill-rule="evenodd"
     sodipodi:nodetypes="ccccccccsccccccccccsccccccccccsccccccccsccscccccccccsc"
     style="stroke-width:2.20575;fill:#fe7920;fill-opacity:1" />
  <text
     xml:space="preserve"
     style="font-weight:bold;font-size:83.2px;line-height:1.25;font-family:Alegreya;-inkscape-font-specification:'Alegreya Bold';stroke-width:1.3;fill:#ffffff;fill-opacity:1"
     x="9.8047733"
     y="358.96155"
     id="text899"><tspan
       sodipodi:role="line"
       id="tspan897"
       x="9.8047733"
       y="358.96155"
       style="font-size:83.2px;stroke-width:1.3;fill:#ffffff;fill-opacity:1">KANTILES</tspan></text>
</svg>
